<svg width="80" height="80" viewBox="0 0 80 80" fill="none" xmlns="http://www.w3.org/2000/svg">
<path d="M39.9969 15.5204C26.1938 15.5204 15 26.7579 15 40.6204C15 51.7079 22.1625 61.1142 32.1 64.436C33.35 64.6673 33.8062 63.8923 33.8062 63.2267C33.8062 62.6298 33.7844 61.0517 33.7719 58.9579C26.8188 60.4735 25.35 55.5923 25.35 55.5923C24.2156 52.6923 22.575 51.9204 22.575 51.9204C20.3031 50.3642 22.7437 50.3954 22.7437 50.3954C25.2531 50.5735 26.5719 52.9829 26.5719 52.9829C28.8031 56.8173 32.425 55.711 33.85 55.0673C34.075 53.4454 34.7219 52.3392 35.4375 51.711C29.8875 51.0767 24.05 48.9235 24.05 39.3079C24.05 36.5673 25.025 34.3267 26.625 32.5704C26.3656 31.936 25.5094 29.3829 26.8688 25.9298C26.8688 25.9298 28.9688 25.2548 33.7437 28.5017C35.7375 27.9454 37.875 27.6673 40.0031 27.6579C42.125 27.6704 44.2656 27.9454 46.2625 28.5048C51.0344 25.2579 53.1312 25.9329 53.1312 25.9329C54.4937 29.3892 53.6375 31.9392 53.3812 32.5735C54.9844 34.3298 55.95 36.5704 55.95 39.311C55.95 48.9517 50.1062 51.0735 44.5375 51.6954C45.4344 52.4704 46.2344 54.0017 46.2344 56.3423C46.2344 59.6985 46.2031 62.4048 46.2031 63.2267C46.2031 63.8985 46.6531 64.6798 47.9219 64.4329C57.8438 61.1079 65 51.7048 65 40.6204C65 26.7579 53.8063 15.5204 39.9969 15.5204Z" fill="black"/>
<path d="M78.5 40C78.5 45.0559 77.5042 50.0623 75.5694 54.7333C73.6346 59.4043 70.7987 63.6486 67.2236 67.2236C63.6486 70.7987 59.4043 73.6346 54.7333 75.5694C50.0623 77.5042 45.0559 78.5 40 78.5C34.9441 78.5 29.9377 77.5042 25.2667 75.5694C20.5957 73.6346 16.3514 70.7987 12.7764 67.2236C9.20133 63.6486 6.36544 59.4043 4.43064 54.7333C2.49583 50.0623 1.5 45.0559 1.5 40C1.5 34.9441 2.49583 29.9377 4.43064 25.2667C6.36545 20.5956 9.20134 16.3514 12.7764 12.7764C16.3514 9.20133 20.5957 6.36544 25.2667 4.43064C29.9377 2.49583 34.9441 1.5 40 1.5C45.0559 1.5 50.0623 2.49583 54.7333 4.43064C59.4044 6.36545 63.6486 9.20134 67.2236 12.7764C70.7987 16.3514 73.6346 20.5957 75.5694 25.2667C77.5042 29.9377 78.5 34.9441 78.5 40L78.5 40Z" stroke="black" stroke-width="3"/>
</svg>
