<svg width="80" height="80" viewBox="0 0 80 80" fill="none" xmlns="http://www.w3.org/2000/svg">
<path d="M60.9895 61V60.9982H61V45.5947C61 38.0592 59.3777 32.2545 50.5682 32.2545C46.3332 32.2545 43.4912 34.5785 42.331 36.7818H42.2085V32.958H33.8557V60.9982H42.5532V47.1137C42.5532 43.458 43.2462 39.923 47.7735 39.923C52.2342 39.923 52.3007 44.095 52.3007 47.3482V61H60.9895Z" fill="black"/>
<path d="M19.6931 32.9597H28.4011V61H19.6931V32.9597Z" fill="black"/>
<path d="M24.0435 19C21.2592 19 19 21.2593 19 24.0435C19 26.8278 21.2592 29.1343 24.0435 29.1343C26.8277 29.1343 29.087 26.8278 29.087 24.0435C29.0852 21.2593 26.826 19 24.0435 19V19Z" fill="black"/>
<path d="M78.5 40C78.5 45.0559 77.5042 50.0623 75.5694 54.7333C73.6346 59.4043 70.7987 63.6486 67.2236 67.2236C63.6486 70.7987 59.4043 73.6346 54.7333 75.5694C50.0623 77.5042 45.0559 78.5 40 78.5C34.9441 78.5 29.9377 77.5042 25.2667 75.5694C20.5957 73.6346 16.3514 70.7987 12.7764 67.2236C9.20133 63.6486 6.36544 59.4043 4.43064 54.7333C2.49583 50.0623 1.5 45.0559 1.5 40C1.5 34.9441 2.49583 29.9377 4.43064 25.2667C6.36545 20.5956 9.20134 16.3514 12.7764 12.7764C16.3514 9.20133 20.5957 6.36544 25.2667 4.43064C29.9377 2.49583 34.9441 1.5 40 1.5C45.0559 1.5 50.0623 2.49583 54.7333 4.43064C59.4044 6.36545 63.6486 9.20134 67.2236 12.7764C70.7987 16.3514 73.6346 20.5957 75.5694 25.2667C77.5042 29.9377 78.5 34.9441 78.5 40L78.5 40Z" stroke="black" stroke-width="3"/>
</svg>
