<svg width="80" height="80" viewBox="0 0 80 80" fill="none" xmlns="http://www.w3.org/2000/svg">
<g clip-path="url(#clip0)">
<mask id="path-2-inside-1" fill="white">
<path d="M15.7033 24.2125L21.1137 27.7708V50.4104L15.4637 55.9854C14.4721 56.9667 15.17 58.6604 16.5616 58.6604H28.7887C30.1783 58.6604 30.8804 56.9688 29.8866 55.9854L24.2366 50.4104V33.9271C30.0304 46.2521 35.6783 58.2458 35.5429 57.9729C36.1137 59.1313 37.92 59.1625 38.4096 57.8167L38.4116 57.8125C38.4116 57.8125 38.4137 57.8104 38.4137 57.8083C39.7679 54.0729 42.6721 46.0625 42.4866 46.5708C42.5908 46.2813 47.5304 32.1833 47.6075 31.9646V52.325L43.9804 56.0021C43.0075 56.9896 43.7096 58.6625 45.0929 58.6625H63.4366C64.8158 58.6625 65.52 56.9979 64.5533 56.0083L61.0679 52.4396L60.9283 27.5792L64.5346 24.0208C65.5262 23.0396 64.8283 21.3458 63.4366 21.3458C61.9741 21.3458 68.7387 21.3437 49.1241 21.3542C47.1283 21.4125 47.8033 23.2062 40.82 41.7125L32.2575 22.2771C32.0075 21.7104 31.445 21.3438 30.8262 21.3438H16.5616C15.0158 21.3458 14.4096 23.3646 15.7033 24.2125ZM20.3679 55.5375L22.6741 53.2604L24.9804 55.5375H20.3679ZM50.7325 24.4708H59.6304C58.6325 25.5854 57.795 25.9104 57.7991 26.9396L57.9471 53.0875C57.9512 54.0792 58.7616 54.4271 59.7262 55.5354H48.8304C49.9075 54.3125 50.7346 53.9771 50.7346 52.9646V24.4708H50.7325ZM29.8075 24.4708L39.295 46.0021L36.7408 53.1833C23.8741 25.8583 24.3262 25.4292 21.7804 24.4708H29.8075Z"/>
</mask>
<path d="M15.7033 24.2125L21.1137 27.7708V50.4104L15.4637 55.9854C14.4721 56.9667 15.17 58.6604 16.5616 58.6604H28.7887C30.1783 58.6604 30.8804 56.9688 29.8866 55.9854L24.2366 50.4104V33.9271C30.0304 46.2521 35.6783 58.2458 35.5429 57.9729C36.1137 59.1313 37.92 59.1625 38.4096 57.8167L38.4116 57.8125C38.4116 57.8125 38.4137 57.8104 38.4137 57.8083C39.7679 54.0729 42.6721 46.0625 42.4866 46.5708C42.5908 46.2813 47.5304 32.1833 47.6075 31.9646V52.325L43.9804 56.0021C43.0075 56.9896 43.7096 58.6625 45.0929 58.6625H63.4366C64.8158 58.6625 65.52 56.9979 64.5533 56.0083L61.0679 52.4396L60.9283 27.5792L64.5346 24.0208C65.5262 23.0396 64.8283 21.3458 63.4366 21.3458C61.9741 21.3458 68.7387 21.3437 49.1241 21.3542C47.1283 21.4125 47.8033 23.2062 40.82 41.7125L32.2575 22.2771C32.0075 21.7104 31.445 21.3438 30.8262 21.3438H16.5616C15.0158 21.3458 14.4096 23.3646 15.7033 24.2125ZM20.3679 55.5375L22.6741 53.2604L24.9804 55.5375H20.3679ZM50.7325 24.4708H59.6304C58.6325 25.5854 57.795 25.9104 57.7991 26.9396L57.9471 53.0875C57.9512 54.0792 58.7616 54.4271 59.7262 55.5354H48.8304C49.9075 54.3125 50.7346 53.9771 50.7346 52.9646V24.4708H50.7325ZM29.8075 24.4708L39.295 46.0021L36.7408 53.1833C23.8741 25.8583 24.3262 25.4292 21.7804 24.4708H29.8075Z" fill="black"/>
<path d="M21.1137 27.7708H42.4471V16.2677L32.8362 9.94686L21.1137 27.7708ZM21.1137 50.4104L36.0975 65.5958L42.4471 59.3306V50.4104H21.1137ZM15.4637 55.9854L0.479897 40.8L0.469256 40.8105L0.45863 40.821L15.4637 55.9854ZM29.8866 55.9854L44.8919 40.8212L44.8812 40.8106L44.8705 40.8L29.8866 55.9854ZM24.2366 50.4104H2.9033V59.3306L9.25281 65.5958L24.2366 50.4104ZM24.2366 33.9271L43.5432 24.8514L2.9033 33.9271H24.2366ZM35.5429 57.9729L54.6531 48.4908L16.407 67.4032L35.5429 57.9729ZM38.4096 57.8167L19.3248 48.2834L18.779 49.376L18.3615 50.5237L38.4096 57.8167ZM38.4116 57.8125L23.338 42.7162L20.8795 45.1711L19.3269 48.2792L38.4116 57.8125ZM38.4137 57.8083L18.3576 50.5376L17.0804 54.0608V57.8083H38.4137ZM42.4866 46.5708L22.4125 39.3499L62.5284 53.8811L42.4866 46.5708ZM47.6075 31.9646H68.9408L27.4868 24.8744L47.6075 31.9646ZM47.6075 52.325L62.7953 67.3063L68.9408 61.0761V52.325H47.6075ZM43.9804 56.0021L28.7925 41.0208L28.7836 41.0298L43.9804 56.0021ZM64.5533 56.0083L49.2912 70.914L49.2927 70.9156L64.5533 56.0083ZM61.0679 52.4396L39.7349 52.5594L39.7833 61.1788L45.8058 67.3453L61.0679 52.4396ZM60.9283 27.5792L45.9446 12.3937L39.5448 18.7084L39.5953 27.6989L60.9283 27.5792ZM64.5346 24.0208L79.5183 39.2063L79.529 39.1958L79.5396 39.1852L64.5346 24.0208ZM49.1241 21.3542L49.1128 0.0208359L48.8068 0.020998L48.5009 0.0299377L49.1241 21.3542ZM40.82 41.7125L21.2973 50.3134L42.3468 98.0922L60.7795 49.2442L40.82 41.7125ZM32.2575 22.2771L51.7802 13.6761L51.7757 13.6661L32.2575 22.2771ZM16.5616 21.3438V0.010416H16.5473L16.5329 0.0104351L16.5616 21.3438ZM20.3679 55.5375L5.37924 40.3569L-31.6024 76.8708H20.3679V55.5375ZM22.6741 53.2604L37.6628 38.0798L22.6741 23.2807L7.68549 38.0798L22.6741 53.2604ZM24.9804 55.5375V76.8708H76.9507L39.969 40.3569L24.9804 55.5375ZM59.6304 24.4708L75.5242 38.701L107.365 3.1375H59.6304V24.4708ZM57.7991 26.9396L36.466 27.026L36.4661 27.0431L36.4662 27.0603L57.7991 26.9396ZM57.9471 53.0875L79.2802 52.9979L79.2801 52.9824L79.2801 52.9668L57.9471 53.0875ZM59.7262 55.5354V76.8688H106.574L75.8186 41.5302L59.7262 55.5354ZM48.8304 55.5354L32.8211 41.4353L1.6131 76.8688H48.8304V55.5354ZM50.7346 24.4708H72.0679V3.1375H50.7346V24.4708ZM29.8075 24.4708L49.3296 15.8686L43.7198 3.1375H29.8075V24.4708ZM39.295 46.0021L59.3948 53.151L62.2368 45.1606L58.8171 37.3999L39.295 46.0021ZM36.7408 53.1833L17.4401 62.2715L39.4933 109.106L56.8406 60.3323L36.7408 53.1833ZM21.7804 24.4708V3.1375L14.2647 44.4364L21.7804 24.4708ZM3.9808 42.0365L9.39121 45.5948L32.8362 9.94686L27.4258 6.38853L3.9808 42.0365ZM-0.219612 27.7708V50.4104H42.4471V27.7708H-0.219612ZM6.1299 35.225L0.479897 40.8L30.4475 71.1708L36.0975 65.5958L6.1299 35.225ZM0.45863 40.821C-14.0789 55.2059 -3.89425 79.9938 16.5616 79.9938V37.3271C34.2342 37.3271 43.023 58.7275 30.4688 71.1498L0.45863 40.821ZM16.5616 79.9938H28.7887V37.3271H16.5616V79.9938ZM28.7887 79.9938C49.1692 79.9938 59.4833 55.2597 44.8919 40.8212L14.8814 71.1496C2.27748 58.6779 11.1874 37.3271 28.7887 37.3271V79.9938ZM44.8705 40.8L39.2205 35.225L9.25281 65.5958L14.9028 71.1708L44.8705 40.8ZM45.57 50.4104V33.9271H2.9033V50.4104H45.57ZM4.93007 43.0027C7.82856 49.1687 10.6905 55.2517 12.8092 59.7554C13.8692 62.0087 14.742 63.8641 15.3412 65.1388C15.6413 65.7775 15.8697 66.2636 16.0176 66.5793C16.0934 66.7409 16.1405 66.8416 16.1641 66.8923C16.1833 66.9335 16.1667 66.8981 16.139 66.8375C16.1309 66.8197 16.108 66.7698 16.0786 66.7042C16.0641 66.672 16.0369 66.6111 16.0032 66.534C15.9835 66.489 15.899 66.2966 15.7973 66.0476C15.7366 65.8974 15.5715 65.4713 15.4698 65.1947C15.2447 64.5347 14.3529 60.4257 14.2383 56.9175C27.4042 38.2587 51.7156 44.0624 53.2914 46.1376C53.6231 46.6504 54.0755 47.4067 54.2079 47.6424C54.3965 47.983 54.5356 48.2577 54.5524 48.2905C54.5993 48.3825 54.6355 48.4553 54.6531 48.4908L16.4327 67.4551C16.4513 67.4927 16.4884 67.5672 16.536 67.6606C16.5535 67.6949 16.6931 67.9706 16.8821 68.3118C17.0147 68.5478 17.4672 69.3043 17.799 69.8173C19.3749 71.8926 43.6864 77.6964 56.8523 59.0375C56.7377 55.5292 55.8458 51.4201 55.6206 50.7599C55.5189 50.483 55.3536 50.0566 55.2927 49.9059C55.1907 49.6561 55.1057 49.4625 55.0853 49.4159C55.0509 49.3373 55.0228 49.2745 55.0073 49.2399C54.9758 49.1697 54.9502 49.1137 54.9386 49.0884C54.8971 48.9976 54.8558 48.9089 54.8396 48.8743C54.7926 48.7732 54.7266 48.6322 54.6495 48.4679C54.4919 48.1318 54.256 47.6293 53.9552 46.9894C53.3524 45.7069 52.4764 43.8447 51.4172 41.593C49.2973 37.0869 46.4385 31.0105 43.5432 24.8514L4.93007 43.0027ZM16.407 67.4032C20.819 76.3559 29.7178 80.3698 37.5772 80.1596C45.9868 79.9346 54.911 74.8589 58.4576 65.1097L18.3615 50.5237C21.4185 42.1202 29.1948 37.7019 36.4362 37.5082C43.1274 37.3292 50.8376 40.7483 54.6788 48.5427L16.407 67.4032ZM57.4943 67.35L57.4964 67.3458L19.3269 48.2792L19.3248 48.2834L57.4943 67.35ZM38.4116 57.8125C53.4852 72.9088 53.4889 72.9051 53.4926 72.9014C53.4939 72.9002 53.4976 72.8965 53.5 72.894C53.505 72.8891 53.5099 72.8841 53.5149 72.8791C53.5248 72.8692 53.5348 72.8591 53.5449 72.849C53.5649 72.8288 53.5852 72.8083 53.6057 72.7876C53.6466 72.7461 53.6884 72.7033 53.731 72.6594C53.816 72.5716 53.9049 72.4783 53.9972 72.3797C54.1804 72.1837 54.3836 71.9589 54.6002 71.7065C55.0143 71.224 55.57 70.5335 56.1569 69.6541C56.8679 68.5888 59.7471 64.2267 59.7471 57.8083H17.0804C17.0804 54.3306 17.9273 51.582 18.6082 49.8811C19.3064 48.137 20.1052 46.8123 20.6685 45.9683C21.2549 45.0897 21.81 44.3999 22.2237 43.9178C22.4402 43.6657 22.6432 43.441 22.8263 43.2452C22.9185 43.1465 23.0074 43.0533 23.0924 42.9656C23.1349 42.9217 23.1767 42.8789 23.2176 42.8374C23.2381 42.8167 23.2584 42.7962 23.2784 42.776C23.2885 42.7659 23.2984 42.7559 23.3084 42.7459C23.3133 42.7409 23.3183 42.736 23.3232 42.731C23.3257 42.7285 23.3294 42.7248 23.3307 42.7236C23.3343 42.7199 23.338 42.7162 38.4116 57.8125ZM58.4698 65.0791C59.1467 63.2119 60.2116 60.2747 61.0839 57.8683C61.52 56.6652 61.9083 55.5937 62.1762 54.8544C62.3099 54.4854 62.4145 54.1965 62.4802 54.0151C62.5117 53.9281 62.5383 53.8545 62.5547 53.809C62.5586 53.7982 62.5658 53.7783 62.5736 53.7564C62.5765 53.7485 62.5863 53.7211 62.5984 53.687C62.6029 53.6744 62.6191 53.6288 62.6394 53.5706C62.6512 53.5367 62.6831 53.4438 62.7032 53.3848C62.746 53.2569 62.9407 52.6377 63.0816 52.1432C50.9307 26.953 23.4796 36.877 22.7906 38.3719C22.7106 38.5675 22.6023 38.8413 22.5724 38.919C22.5322 39.0239 22.501 39.1081 22.4984 39.1151C22.4816 39.1605 22.4682 39.197 22.4657 39.2036C22.4568 39.228 22.4487 39.25 22.4449 39.2605L62.5284 53.8811C62.5303 53.8758 62.5266 53.8861 62.5204 53.9028C62.5194 53.9055 62.507 53.9393 62.4909 53.9828C62.4886 53.989 62.4576 54.0725 62.4176 54.177C62.3878 54.2544 62.2796 54.5282 62.1996 54.7237C61.5106 56.2185 34.0596 66.1424 21.9087 40.9523C22.0495 40.4578 22.2442 39.8388 22.2869 39.711C22.307 39.6521 22.3388 39.5596 22.3505 39.5259C22.3706 39.4683 22.3865 39.4236 22.3906 39.412C22.4019 39.38 22.4107 39.3558 22.412 39.3519C22.4169 39.3383 22.4198 39.3304 22.4179 39.3355C22.4115 39.3533 22.3934 39.4033 22.3606 39.494C22.2977 39.6679 22.1952 39.9507 22.0616 40.3195C21.7948 41.0559 21.4072 42.1252 20.9712 43.3281C20.0992 45.7336 19.0349 48.6693 18.3576 50.5376L58.4698 65.0791ZM62.5607 53.7917C62.6522 53.5374 63.9679 49.7836 65.1898 46.2973C65.8187 44.503 66.4468 42.7108 66.9223 41.354C67.1601 40.6754 67.3596 40.106 67.5021 39.6994C67.5734 39.4961 67.6302 39.334 67.6703 39.2196C67.7155 39.0909 67.7307 39.0474 67.7281 39.0547L27.4868 24.8744C27.4403 25.0064 26.1737 28.6212 24.9246 32.185C24.2959 33.9788 23.6667 35.7737 23.1884 37.1379C22.6773 38.5955 22.4 39.3848 22.4125 39.3499L62.5607 53.7917ZM26.2741 31.9646V52.325H68.9408V31.9646H26.2741ZM32.4196 37.3437L28.7925 41.0208L59.1682 70.9834L62.7953 67.3063L32.4196 37.3437ZM28.7836 41.0298C14.5179 55.5093 24.7907 79.9958 45.0929 79.9958V37.3292C62.6284 37.3292 71.497 58.4698 59.1771 70.9744L28.7836 41.0298ZM45.0929 79.9958H63.4366V37.3292H45.0929V79.9958ZM63.4366 79.9958C83.6693 79.9958 94 55.6235 79.8139 41.1011L49.2927 70.9156C37.04 58.3723 45.9623 37.3292 63.4366 37.3292V79.9958ZM79.8154 41.1026L76.33 37.5339L45.8058 67.3453L49.2912 70.914L79.8154 41.1026ZM82.4009 52.3198L82.2613 27.4594L39.5953 27.6989L39.7349 52.5594L82.4009 52.3198ZM75.912 42.7647L79.5183 39.2063L49.5508 8.83534L45.9446 12.3937L75.912 42.7647ZM79.5396 39.1852C94.0772 24.8003 83.8925 0.0124989 63.4366 0.0124989V42.6792C45.7641 42.6792 36.9752 21.2788 49.5295 8.85646L79.5396 39.1852ZM63.4366 0.0124989C63.3458 0.0124989 63.2896 0.0124912 63.258 0.0124798C63.2408 0.0124741 63.2364 0.0124683 63.2387 0.0124702C63.2398 0.0124722 63.2434 0.012476 63.2486 0.0124855C63.2514 0.0124912 63.2658 0.012516 63.2849 0.0125866C63.2924 0.0126133 63.317 0.0127048 63.3486 0.0129166C63.3663 0.0130424 63.4127 0.0134411 63.4414 0.0137386C63.497 0.0144253 63.7017 0.0182018 63.8507 0.0221901C65.7311 0.162443 84.4678 23.0881 64.1346 42.6589C63.8813 42.6684 63.5544 42.6763 63.4809 42.6773C63.4456 42.6778 63.3896 42.6783 63.3691 42.6785C63.3556 42.6786 63.3324 42.6787 63.323 42.6788C63.2565 42.6791 63.2339 42.679 63.3473 42.679C63.3768 42.679 63.3998 42.679 63.411 42.679C63.4263 42.679 63.4066 42.679 63.3798 42.6789C63.374 42.6789 63.3639 42.6789 63.3512 42.6788C63.3417 42.6788 63.315 42.6787 63.2808 42.6784C63.2627 42.6783 63.2162 42.6778 63.188 42.6775C63.1393 42.6769 62.9838 42.6741 62.877 42.6716C62.4732 42.6571 42.1302 22.3178 60.1373 0.269779C61.3991 0.110344 62.8345 0.0209999 63.0009 0.0169144C63.0657 0.0156765 63.1653 0.0141544 63.2002 0.013731C63.2217 0.0135002 63.2579 0.0131588 63.2727 0.0130367C63.3013 0.0128117 63.3236 0.0126953 63.3326 0.0126495C63.3526 0.0125484 63.3677 0.0125027 63.3716 0.0124912C63.3828 0.012455 63.3235 0.0125561 63.0698 0.0127678C62.1301 0.0135441 58.9212 0.0156269 49.1128 0.0208359L49.1355 42.6875C58.9416 42.6823 62.1577 42.6802 63.1051 42.6794C63.3231 42.6792 63.4519 42.6791 63.5028 42.679C63.5091 42.6789 63.5262 42.6789 63.5475 42.6788C63.5572 42.6787 63.5801 42.6786 63.6091 42.6784C63.624 42.6783 63.6605 42.6779 63.6821 42.6777C63.7171 42.6773 63.8168 42.6757 63.8817 42.6745C64.0481 42.6704 65.4836 42.5811 66.7454 42.4216C84.7525 20.3736 64.4095 0.0343437 64.0056 0.0198288C63.8988 0.017271 63.7432 0.0144997 63.6944 0.0138645C63.666 0.0135479 63.6194 0.0131073 63.6011 0.0129623C63.5452 0.0125427 63.4997 0.0124378 63.4986 0.0124359C63.4652 0.0123425 63.4319 0.0123367 63.4284 0.0123348C63.4022 0.0123253 63.3675 0.0123291 63.3359 0.0123367C63.3273 0.0123386 63.1694 0.0123119 63.0895 0.0127487C63.0893 0.0127506 63.0182 0.0130787 62.9307 0.0142078C62.8571 0.0152836 62.5302 0.0231342 62.2769 0.0326672C41.9436 19.6035 60.6803 42.5291 62.5607 42.6694C62.7098 42.6733 62.9146 42.6771 62.9703 42.6778C62.9991 42.6781 63.0457 42.6785 63.0635 42.6786C63.0954 42.6788 63.1205 42.6789 63.1286 42.679C63.1602 42.6791 63.1878 42.6791 63.1887 42.6791C63.2051 42.6791 63.2244 42.6791 63.2428 42.6791C63.2823 42.6792 63.3447 42.6792 63.4366 42.6792V0.0124989ZM48.5009 0.0299377C46.7678 0.0805912 43.1524 0.350704 39.1317 2.31094C34.9025 4.37286 32.1646 7.3353 30.5008 9.70764C28.1103 13.116 26.8874 17.0425 26.6718 17.6686C25.555 20.9111 24.2064 25.3136 20.8604 34.1808L60.7795 49.2442C64.4168 39.6052 66.2224 33.8577 67.013 31.5621C67.2194 30.9629 67.2406 30.9373 67.1511 31.152C67.1111 31.2479 66.5765 32.5758 65.4325 34.207C64.0952 36.1138 61.6865 38.782 57.8297 40.6623C54.1814 42.441 50.9815 42.6423 49.7474 42.6784L48.5009 0.0299377ZM60.3427 33.1116L51.7802 13.6761L12.7348 30.878L21.2973 50.3134L60.3427 33.1116ZM51.7757 13.6661C48.1163 5.37148 39.902 0.010416 30.8262 0.010416V42.6771C22.9879 42.6771 15.8986 38.0494 12.7392 30.8881L51.7757 13.6661ZM30.8262 0.010416H16.5616V42.6771H30.8262V0.010416ZM16.5329 0.0104351C-6.01947 0.0408287 -15.1424 29.5033 4.0093 42.0552L27.3973 6.36981C43.9615 17.2259 36.0511 42.6508 16.5904 42.6771L16.5329 0.0104351ZM35.3565 70.7181L37.6628 68.4411L7.68549 38.0798L5.37924 40.3569L35.3565 70.7181ZM7.68549 68.4411L9.99173 70.7181L39.969 40.3569L37.6628 38.0798L7.68549 68.4411ZM24.9804 34.2042H20.3679V76.8708H24.9804V34.2042ZM50.7325 45.8042H59.6304V3.1375H50.7325V45.8042ZM43.7366 10.2407C44.1316 9.79948 44.4444 9.51379 44.4013 9.55386C44.3811 9.57262 44.3651 9.58737 44.295 9.65208C44.2407 9.70215 44.1385 9.79645 44.0257 9.90212C43.8134 10.1011 43.3942 10.4975 42.9129 11.0014C41.9768 11.9813 40.1972 13.9828 38.7524 16.9583C37.1805 20.1958 36.4523 23.6414 36.466 27.026L79.1323 26.8532C79.1439 29.7232 78.5188 32.7422 77.1339 35.5945C75.8762 38.1847 74.3676 39.8424 73.7651 40.4731C73.3521 40.9055 72.7701 41.4365 73.4441 40.8103C73.8385 40.4438 74.6302 39.6995 75.5242 38.701L43.7366 10.2407ZM36.4662 27.0603L36.6141 53.2082L79.2801 52.9668L79.1321 26.8189L36.4662 27.0603ZM36.6139 53.1771C36.6281 56.5546 37.3823 59.9129 38.8876 63.024C40.268 65.877 41.9472 67.8163 42.8253 68.7643C43.2792 69.2543 43.6747 69.642 43.8772 69.8387C43.9846 69.943 44.082 70.0362 44.1346 70.0866C44.2021 70.1513 44.2187 70.1671 44.2395 70.1871C44.2874 70.2332 43.9995 69.9608 43.6338 69.5406L75.8186 41.5302C74.9707 40.5559 74.2198 39.8243 73.8443 39.4625C73.2073 38.8488 73.7455 39.3585 74.1277 39.7711C74.6821 40.3697 76.0976 41.9668 77.2948 44.441C78.6168 47.1733 79.2681 50.1162 79.2802 52.9979L36.6139 53.1771ZM59.7262 34.2021H48.8304V76.8688H59.7262V34.2021ZM64.8397 69.6356C64.5292 69.9881 64.2889 70.2144 64.3351 70.1701C64.355 70.1511 64.3763 70.1308 64.4404 70.0699C64.4912 70.0217 64.5882 69.9297 64.6923 69.8296C64.8876 69.6418 65.2814 69.2603 65.7321 68.7807C66.5947 67.8629 68.3296 65.9035 69.7523 62.9948C71.317 59.7957 72.0679 56.3676 72.0679 52.9646H29.4012C29.4012 50.0679 30.0487 47.0613 31.4247 44.2481C32.6586 41.7253 34.1195 40.116 34.6406 39.5615C34.9827 39.1975 35.5142 38.6947 34.8295 39.3503C34.4177 39.7445 33.6701 40.4713 32.8211 41.4353L64.8397 69.6356ZM72.0679 52.9646V24.4708H29.4012V52.9646H72.0679ZM50.7346 3.1375H50.7325V45.8042H50.7346V3.1375ZM10.2853 33.073L19.7728 54.6043L58.8171 37.3999L49.3296 15.8686L10.2853 33.073ZM19.1951 38.8531L16.641 46.0344L56.8406 60.3323L59.3948 53.151L19.1951 38.8531ZM56.0415 44.0951C49.9066 31.0665 46.4188 23.3105 44.4878 19.4318C43.6548 17.7587 42.0344 14.4947 39.5707 11.6244C35.6798 7.09118 31.3834 5.29097 29.2961 4.50523L14.2647 44.4364C14.2626 44.4357 14.2434 44.4284 14.2124 44.4164C14.1811 44.4044 14.1327 44.3855 14.0714 44.3609C13.9508 44.3126 13.7583 44.2334 13.5182 44.126C13.027 43.9064 12.316 43.5601 11.4958 43.0584C9.67409 41.9443 8.24457 40.6368 7.19452 39.4134C6.30674 38.3791 5.85344 37.5905 5.83958 37.5669C5.80686 37.5111 5.93209 37.7228 6.29281 38.4474C7.98888 41.8541 10.7083 47.9751 17.4401 62.2715L56.0415 44.0951ZM21.7804 45.8042H29.8075V3.1375H21.7804V45.8042Z" fill="black" mask="url(#path-2-inside-1)"/>
</g>
<path d="M78.5 40C78.5 45.0559 77.5042 50.0623 75.5694 54.7333C73.6346 59.4043 70.7987 63.6486 67.2236 67.2236C63.6486 70.7987 59.4043 73.6346 54.7333 75.5694C50.0623 77.5042 45.0559 78.5 40 78.5C34.9441 78.5 29.9377 77.5042 25.2667 75.5694C20.5957 73.6346 16.3514 70.7987 12.7764 67.2236C9.20133 63.6486 6.36544 59.4043 4.43064 54.7333C2.49583 50.0623 1.5 45.0559 1.5 40C1.5 34.9441 2.49583 29.9377 4.43064 25.2667C6.36545 20.5956 9.20134 16.3514 12.7764 12.7764C16.3514 9.20133 20.5957 6.36544 25.2667 4.43064C29.9377 2.49583 34.9441 1.5 40 1.5C45.0559 1.5 50.0623 2.49583 54.7333 4.43064C59.4044 6.36545 63.6486 9.20134 67.2236 12.7764C70.7987 16.3514 73.6346 20.5957 75.5694 25.2667C77.5042 29.9377 78.5 34.9441 78.5 40L78.5 40Z" stroke="black" stroke-width="3"/>
<path d="M23.5 26.5L21.5 24.5V24H30L33 30.5L40 45.5L37.5 52.5L36.5 53.5L23.5 26.5Z" fill="black" stroke="black"/>
<path d="M19.5 55.5L21.5 53.5L23 53L25.5 55L25 56.5H21.5L19.5 55.5Z" fill="black" stroke="black"/>
<path d="M50 53.5V24H61L58.5 26.5V53.5L61 56H48L50 53.5Z" fill="black"/>
<defs>
<clipPath id="clip0">
<rect x="15" y="15" width="50" height="50" fill="white"/>
</clipPath>
</defs>
</svg>
