<svg width="80" height="80" viewBox="0 0 80 80" fill="none" xmlns="http://www.w3.org/2000/svg">
<g clip-path="url(#clip0)">
<path d="M65 25.0552C61.8548 25.2001 61.9234 25.1883 61.5679 25.2181L63.4306 19.8985C63.4306 19.8985 57.6163 22.0374 56.1423 22.42C52.2711 18.9406 46.517 18.7869 42.4033 21.3152C39.0345 23.3862 37.2263 26.9427 37.8294 31.0996C31.2731 30.1897 25.7491 27.0819 21.3877 21.8428L20.0083 20.1861L18.9776 22.0789C17.6749 24.4708 17.2423 27.2055 17.7592 29.7793C17.9713 30.8352 18.3318 31.8423 18.8311 32.7853L17.6478 32.3267L17.5074 34.3039C17.3651 36.3123 18.0338 38.6568 19.2965 40.5749C19.652 41.115 20.1098 41.7082 20.69 42.2934L20.0785 42.1996L20.8247 44.4651C21.8054 47.4417 23.8425 49.7446 26.4861 51.0249C23.8459 52.1452 21.7131 52.8601 18.2074 54.0133L15 55.0677L17.9625 56.6874C19.092 57.305 23.0833 59.3676 27.027 59.9863C35.7931 61.3612 45.6629 60.2416 52.3074 54.2574C57.9039 49.2171 59.7403 42.0473 59.3588 34.5862C59.3012 33.4567 59.6106 32.3786 60.2301 31.5512C61.471 29.8945 64.9924 25.0662 65 25.0552ZM57.8875 29.7964C56.8587 31.1701 56.3433 32.9245 56.4356 34.7357C56.8205 42.2617 54.7728 48.0982 50.3489 52.0823C45.1811 56.7366 36.8456 58.5635 27.4805 57.0944C25.7845 56.8285 24.0317 56.2331 22.5809 55.6384C25.5202 54.6271 27.7899 53.7257 31.4555 51.9907L36.5725 49.5688L30.9229 49.2072C28.2168 49.034 25.9634 47.7225 24.5783 45.5931C25.3138 45.5504 26.0229 45.4314 26.729 45.2345L32.1173 43.7338L26.684 42.4033C24.0439 41.7567 22.539 40.177 21.7413 38.9655C21.2176 38.1693 20.8754 37.3537 20.6702 36.6019C21.2149 36.748 21.8501 36.8521 22.8743 36.9536L27.9032 37.451L23.9188 34.3428C21.0478 32.1036 19.8973 28.7394 20.7407 25.5053C29.7007 34.7987 40.2209 34.1002 41.2798 34.3459C41.0468 32.0818 41.0406 32.0765 40.9796 31.861C39.6235 27.067 42.5955 24.6329 43.936 23.8089C46.736 22.0881 51.1805 21.8287 54.259 24.6638C54.9239 25.2757 55.823 25.5164 56.6645 25.3073C57.4198 25.1196 58.0397 24.9209 58.6466 24.7046L57.3832 28.3125L58.996 28.3137C58.6916 28.7219 58.3266 29.2105 57.8875 29.7964Z" fill="black"/>
<path d="M21 34L20 25.5L21 24L32 31.5L40 32.5L41 25.5L47 21L55.5 23L60.5 24V29L58.5 35.5L57 46.5L49.5 55L36.5 59.5L25 57.5L21 55L30 51L25 48.5L23.5 42.5L20 37.5L21 34Z" fill="black"/>
</g>
<path d="M78.5 40C78.5 45.0559 77.5042 50.0623 75.5694 54.7333C73.6346 59.4043 70.7987 63.6486 67.2236 67.2236C63.6486 70.7987 59.4043 73.6346 54.7333 75.5694C50.0623 77.5042 45.0559 78.5 40 78.5C34.9441 78.5 29.9377 77.5042 25.2667 75.5694C20.5957 73.6346 16.3514 70.7987 12.7764 67.2236C9.20133 63.6486 6.36544 59.4043 4.43064 54.7333C2.49583 50.0623 1.5 45.0559 1.5 40C1.5 34.9441 2.49583 29.9377 4.43064 25.2667C6.36545 20.5956 9.20134 16.3514 12.7764 12.7764C16.3514 9.20133 20.5957 6.36544 25.2667 4.43064C29.9377 2.49583 34.9441 1.5 40 1.5C45.0559 1.5 50.0623 2.49583 54.7333 4.43064C59.4044 6.36545 63.6486 9.20134 67.2236 12.7764C70.7987 16.3514 73.6346 20.5957 75.5694 25.2667C77.5042 29.9377 78.5 34.9441 78.5 40L78.5 40Z" stroke="black" stroke-width="3"/>
<defs>
<clipPath id="clip0">
<rect x="15" y="15" width="50" height="50" fill="white"/>
</clipPath>
</defs>
</svg>
